ply
format ascii 1.0
comment Exported by Aspose.3D 23.1
element vertex 263
property float x
property float y
property float z
property float nx
property float ny
property float nz
property float u
property float v
element face 908
property list uchar int vertex_index
end_header
0.131855 -0.017444 -0.113188 0 0 0 -2.2032140000000004 1.5028920000000001
0.125588 0.068138 -0.113188 0 0 0 -1.0683603333333331 1.0603499999999997
0.134355 0.02576 -0.113188 0 0 0 -2.18090075 0.73277
0.118257 -0.058528 -0.113188 0 0 0 -2.211412666666667 2.27143
0.134355 0.02576 -0.091747 0 0 0 -2.1668632499999996 1.04027
0.131855 -0.017444 -0.091747 0 0 0 -1.6121771428571428 2.322702857142857
0.118257 -0.058528 -0.091747 0 0 0 -2.285379333333334 2.47643
0.106152 0.106804 -0.113188 0 0 0 -0.7126948333333334 0.69066
0.125588 0.068138 -0.091747 0 0 0 -0.9078994285714282 1.3875428571428567
0.094491 -0.094693 -0.091747 0 0 0 -2.854255 2.4776085714285716
0.094491 -0.094693 -0.113188 0 0 0 -2.2269790000000005 3.140652
0.125691 -0.016267 -0.091747 0 0 0 -0.16671399999999995 3.734720000000001
0.112609 -0.055796 -0.091747 0 0 0 -0.4168789999999998 4.490610000000002
0.07737 0.139121 -0.113188 0 0 0 -0.28241171428571427 0.32714357142857137
0.106152 0.106804 -0.091747 0 0 0 -0.6594771666666668 0.8956600000000001
0.128096 0.025301 -0.091747 0 0 0 -0.12071199999999997 2.939839999999999
0.062173 -0.123475 -0.113188 0 0 0 -2.9556566666666666 2.8923949999999996
0.089741 -0.090592 -0.091747 0 0 0 -0.8541570000000003 5.155990000000001
0.119662 0.066076 -0.091747 0 0 0 -0.2820079999999999 2.1601399999999993
0.131908 -0.017454 -0.091747 0 0 0 -1.8579335000000001 1.8221187499999998
0.118307 -0.058552 -0.091747 0 0 0 -1.8599294000000002 2.4114771999999998
0.062173 -0.123475 -0.091747 0 0 0 -2.7812283333333334 3.0973949999999997
0.100961 0.103278 -0.091747 0 0 0 -0.639609 1.4487500000000002
0.094532 -0.094729 -0.091747 0 0 0 -2.6543771666666665 1.9187033333333334
0.041205 0.162889 -0.113188 0 0 0 -0.1395116666666667 0.15442599999999998
0.07737 0.139121 -0.091747 0 0 0 -0.5249041999999999 0.622001
0.125639 0.068156 -0.091747 0 0 0 -0.9073577142857143 1.605181285714285
0.023508 -0.142912 -0.113188 0 0 0 -3.1676066666666665 3.07823
0.058647 -0.118284 -0.091747 0 0 0 -1.4487500000000002 5.68553
0.073269 0.134372 -0.091747 0 0 0 -1.1691499999999995 0.8541570000000003
0.062204 -0.12352 -0.091747 0 0 0 -2.9553883333333326 1.8169816666666674
0.041205 0.162889 -0.091747 0 0 0 -0.18537333333333345 0.3594259999999999
0.106197 0.106834 -0.091747 0 0 0 -0.6564238 1.268376
0.112609 -0.055796 -0.084426 0 0 0 -2.2144489999999992 1.5806162857142858
0.134409 0.025764 -0.091747 0 0 0 -2.16664 1.1318767499999998
0.023508 -0.142912 -0.091747 0 0 0 -2.9449533333333333 3.28323
0.077406 0.139163 -0.091747 0 0 0 -0.41116399999999986 0.9575771666666665
0.089741 -0.090592 -0.084426 0 0 0 -1.7248981666666663 1.8450425
0.000121 0.176485 -0.113188 0 0 0 -0.026601666666666413 0.0244225
0.000121 0.176485 -0.091747 0 0 0 -0.04964833333333307 0.2294225
0.100961 0.103278 -0.084426 0 0 0 -0.20121071428571424 1.3547328571428572
0.125691 -0.016267 -0.084426 0 0 0 -1.7506629999999994 1.9029642499999997
0.119662 0.066076 -0.084426 0 0 0 -0.8456276666666668 1.5762616666666667
0.128096 0.025301 -0.084426 0 0 0 -2.1543794999999997 1.148225
-0.018871 -0.151678 -0.113188 0 0 0 -3.2761500000000003 3.16205
0.021445 -0.136985 -0.091747 0 0 0 -2.1601399999999993 6.043130000000001
0.038473 0.157239 -0.091747 0 0 0 -1.8345300000000004 0.4168789999999998
0.023525 -0.142962 -0.091747 0 0 0 -3.1674599999999993 1.640085000000001
0.041229 0.162937 -0.091747 0 0 0 0.06915857142857146 0.6981047142857143
0.058647 -0.118284 -0.084426 0 0 0 -1.368805 1.7347266666666665
-0.018871 -0.151678 -0.091747 0 0 0 -3.011045 3.36705
0.073269 0.134372 -0.084426 0 0 0 0.7771716666666666 1.0863268333333336
-0.043083 0.178986 -0.113188 0 0 0 -0.02434166666666663 0.0005165
-0.043083 0.178986 -0.091747 0 0 0 -0.49652571428571424 0.17630457142857145
-0.001056 0.170321 -0.091747 0 0 0 -2.590420000000001 0.16671399999999992
-0.062075 -0.149178 -0.113188 0 0 0 -3.273888333333333 3.138145
-0.019329 -0.14542 -0.091747 0 0 0 -2.9398399999999985 6.20442
-0.018867 -0.151732 -0.091747 0 0 0 -3.276133333333333 1.400076666666667
0.000131 0.176539 -0.091747 0 0 0 -0.026524999999999833 0.3145315000000001
0.021445 -0.136985 -0.084426 0 0 0 -0.8071433333333331 1.5611216666666667
0.038473 0.157239 -0.084426 0 0 0 1.6836780000000002 0.7201814
-0.062075 -0.149178 -0.091747 0 0 0 -3.0867442857142855 3.762165714285715
-0.001056 0.170321 -0.084426 0 0 0 2.5269066666666675 0.5373313333333333
-0.085462 0.170219 -0.113188 0 0 0 -0.13288833333333297 0.084337
-0.085462 0.170219 -0.091747 0 0 0 -0.07969666666666637 0.289337
-0.042625 0.172727 -0.091747 0 0 0 -3.3853 0.12071199999999997
-0.043087 0.17904 -0.091747 0 0 0 -0.5057957142857143 0.02379442857142857
-0.103159 -0.135581 -0.113188 0 0 0 -3.1609828333333327 3.0081449999999994
-0.060897 -0.143014 -0.091747 0 0 0 -3.7347200000000007 6.1584200000000004
-0.062085 -0.149231 -0.091747 0 0 0 -3.343067142857143 1.8510199999999992
-0.019329 -0.14542 -0.084426 0 0 0 -0.07819500000000001 1.3360633333333332
-0.042625 0.172727 -0.084426 0 0 0 3.3734666666666664 0.27616033333333345
-0.083399 0.164292 -0.091747 0 0 0 -4.165000000000001 0.2820079999999999
-0.103159 -0.135581 -0.091747 0 0 0 -2.8392756666666665 3.2131449999999995
-0.100427 -0.129932 -0.091747 0 0 0 -4.490610000000002 5.908259999999999
-0.124127 0.150783 -0.113188 0 0 0 -0.3448366666666661 0.2701724999999999
-0.124127 0.150783 -0.091747 0 0 0 -0.24341833333333285 0.47517250000000005
-0.120601 0.145592 -0.091747 0 0 0 -4.87639 0.639609
-0.083399 0.164292 -0.084426 0 0 0 4.102414999999999 0.05110566666666666
-0.139324 -0.111813 -0.113188 0 0 0 -2.428361714285715 2.383628571428571
-0.060897 -0.143014 -0.084426 0 0 0 0.7683649999999999 1.0748949999999997
-0.085479 0.17027 -0.091747 0 0 0 -0.13307833333333335 -0.21225116666666666
-0.135223 -0.107064 -0.091747 0 0 0 -3.812283250000001 4.205734999999997
-0.139324 -0.111813 -0.091747 0 0 0 -3.2701792 3.50108
-0.103183 -0.13563 -0.091747 0 0 0 -2.7799334285714288 0.030117142857142856
-0.156445 0.122001 -0.113188 0 0 0 -1.5681019999999997 0.654432
-0.156445 0.122001 -0.091747 0 0 0 0.14348285714285705 0.7017371428571428
-0.151695 0.1179 -0.091747 0 0 0 -5.470979999999998 1.1691499999999995
-0.124157 0.150827 -0.091747 0 0 0 -0.3451500000000002 -0.3891441666666666
-0.120601 0.145592 -0.084426 0 0 0 4.664076666666666 -0.12249649999999992
-0.100427 -0.129932 -0.084426 0 0 0 2.1114058 1.8346280000000001
-0.168106 -0.079496 -0.091747 0 0 0 -3.0901234285714287 3.0007542857142853
-0.168106 -0.079496 -0.113188 0 0 0 -2.3119486666666664 2.4719099999999994
-0.142933 -0.098407 -0.091747 0 0 0 -3.030531428571429 3.2073885714285706
-0.13936 -0.111855 -0.091747 0 0 0 -2.6134383333333324 0.47025833333333367
-0.135223 -0.107064 -0.084426 0 0 0 1.4288522222222222 0.5339322222222221
-0.180212 0.085836 -0.113188 0 0 0 -0.8132349999999997 0.89114
-0.174562 0.083104 -0.091747 0 0 0 -5.908259999999999 1.8345300000000004
-0.156486 0.122037 -0.091747 0 0 0 -0.6461616666666667 -0.4908666666666667
-0.151695 0.1179 -0.084426 0 0 0 5.084569999999999 -0.03253285714285708
-0.142933 -0.098407 -0.084426 0 0 0 1.0828497272727273 0.04930454545454545
-0.187542 -0.040831 -0.091747 0 0 0 -2.269388333333333 2.3072199999999996
-0.162915 -0.07597 -0.091747 0 0 0 -3.5926649090909097 3.252248181818181
-0.187542 -0.040831 -0.113188 0 0 0 -1.9562866666666663 2.1022199999999995
-0.180212 0.085836 -0.091747 0 0 0 -1.0151149999999998 1.0961400000000001
-0.168146 -0.079532 -0.091747 0 0 0 -2.72363075 0.1697862499999997
-0.162915 -0.07597 -0.084426 0 0 0 1.7102993333333334 -0.013370833333333554
-0.181615 -0.038768 -0.091747 0 0 0 -6.043130000000001 4.165000000000001
-0.193809 0.044752 -0.113188 0 0 0 -0.1613320000000001 1.027164
-0.18026 0.08586 -0.091747 0 0 0 -1.935154 -0.004180000000000028
-0.187645 0.043574 -0.091747 0 0 0 -6.158420000000001 2.590420000000001
-0.174562 0.083104 -0.084426 0 0 0 4.925222857142857 -0.6416614285714284
-0.196309 0.001548 -0.091747 0 0 0 -0.9618599999999999 1.603624
-0.19005 0.002006 -0.091747 0 0 0 -6.20442 3.3853000000000004
-0.16346 -0.075358 -0.091747 0 0 0 0.155362 0.41
-0.196309 0.001548 -0.113188 0 0 0 0.806505 0.848515
-0.193809 0.044752 -0.091747 0 0 0 -1.4277583333333335 1.4889549999999998
-0.16346 -0.075358 -0.084426 0 0 0 0 -1.953085
-0.187593 -0.040848 -0.091747 0 0 0 -2.2699000000000003 -0.09148166666666638
-0.193862 0.044761 -0.091747 0 0 0 -1.180978333333333 -0.34190666666666664
-0.181615 -0.038768 -0.084426 0 0 0 4.1408983333333325 0.035966666666666626
-0.196363 0.001544 -0.091747 0 0 0 -0.1762700000000001 -1.4811933333333331
-0.187645 0.043574 -0.084426 0 0 0 4.5189639999999995 -0.92982
-0.19005 0.002006 -0.084426 0 0 0 4.000249999999999 -1.3612133333333332
-0.030977 0.013654 -0.084426 0 0 0 -3.16257 0.55
-0.030977 0.015223 -0.084426 0 0 0 -3.13257 0.55
-0.030977 0.013654 -0.082334 0 0 0 -3.16257 0.59
-0.030977 0.012085 -0.084426 0 0 0 -3.19257 0.55
-0.091207 -0.003107 -0.085995 -0.42857142857142855 -0.2857142857142857 -0.2857142857142857 -0.803912857142857 0.30596285714285715
0.024365 0.052894 -0.085995 0.16666666666666666 0.4942697069880836 -0.25785183391848326 0 0
0.024365 -0.003107 -0.085995 0.5 -0.25 -0.25 -0.535435 0.2677175
-0.091207 0.052894 -0.085995 -0.25 0.49426970698808365 -0.17451850058515 0.5525 0
0.024365 0.040036 -0.0018 0.42857142857142855 0.5681541182789049 0.04313228537991429 -0.105372 1.6153314285714286
0.024365 -0.003107 0.046834 0.4444444444444444 -0.3333333333333333 0.2222222222222222 -0.4759422222222222 2.213526666666666
-0.091207 0.040036 -0.0018 -0.4 0.5954157655904669 0.06038519953188001 1.4243472 1.6174640000000005
-0.062314 0.04872 -0.058665 0.14285714285714285 0.5217473797493241 0.3687044033244478 0.46217014285714286 0.3767524285714286
-0.004528 0.04872 -0.058665 -0.2 0.5629310486197604 0.28828568209305344 0.2369618 0.4217204000000001
-0.091207 -0.003107 0.046834 -0.42857142857142855 -0.42857142857142855 0.14285714285714285 -0.1724842857142857 2.330124285714285
-0.091207 0.040036 0.046834 -0.2727272727272727 0.5354510375928245 0.2232759849640611 1.6743276363636366 2.107669636363636
0.024365 0.040036 0.046834 0.3333333333333333 0.4633204711736899 0.3186786115348906 -0.081956 2.1018546666666666
-0.004528 0.040036 -0.0018 -0.2857142857142857 0.47006648737650963 -0.2608736898746621 0.4648908571428572 1.1526657142857144
0.024365 -0.003107 0.096514 0.25 -0.75 0 -0.2677175 3.49
-0.062314 0.040036 -0.0018 0.3333333333333333 0.5232504021343112 -0.13959606919107787 1.023044 1.3447766666666667
-0.004528 0.046652 -0.058981 -0.3333333333333333 0.27919213838215573 0.3798341376019557 0.03978333333333334 0.33507766666666666
0.024365 -0.003107 0.131029 0.4 -0.22200771729578606 0.09120716692093438 -0.428348 4.156338
-0.091207 -0.003107 0.131029 -0.4 0.15598456540842795 0.18241433384186875 0.8703480000000001 4.162676
-0.091207 -0.003107 0.096514 -0.25 -0.75 0 -1.3897825 3.49
-0.033421 0.040036 -0.0018 0 0.4905777992978201 -0.5931236483857004 1.1050000000000002 0.6440000000000001
-0.062314 0.046652 -0.058981 0.5 0.20939410378661683 0.2848756032014668 -0.059675000000000034 0.38045025
-0.004528 0.037968 -0.002116 -0.25 0.5320104566955086 -0.17165335407919183 0.48572725 1.20532
-0.062314 0.037968 -0.002116 0.16666666666666666 0.5445907065979836 -0.25403163857720573 1.3336818333333333 1.0683233333333333
-0.033421 0.037968 -0.002116 0 0.3603571026163168 -0.7036638107747004 1.105 0.377165
0.024365 -0.003107 -0.085995 -0.5 0.25 0.25 -0.0705875 -0.023829
0.024365 0.052894 -0.085995 -0.16666666666666666 -0.4942697069880836 0.25785183391848326 -0.06545166666666666 -0.016550500000000003
-0.091207 -0.003107 -0.085995 0.42857142857142855 0.2857142857142857 0.2857142857142857 -0.03536585714285714 -0.026789285714285713
-0.091207 0.052894 -0.085995 0.25 -0.49426970698808365 0.17451850058515 -0.0416945 -0.016550500000000003
0.024365 0.040036 -0.0018 -0.42857142857142855 -0.5681541182789049 -0.04313228537991429 -0.0017999999999999997 0.01612971428571429
0.024365 -0.003107 0.046834 -0.4444444444444444 0.3333333333333333 -0.2222222222222222 0.031012 0.013539999999999998
-0.091207 0.040036 -0.0018 0.4 -0.5954157655904669 -0.06038519953188001 -0.0018 0.014934400000000004
-0.062314 0.04872 -0.058665 -0.14285714285714285 -0.5217473797493241 -0.3687044033244478 -0.024099571428571425 -0.012642857142857143
-0.004528 0.04872 -0.058665 0.2 -0.5629310486197604 -0.28828568209305344 -0.0460264 -0.015711000000000006
-0.091207 -0.003107 0.046834 0.42857142857142855 0.42857142857142855 -0.14285714285714285 0.05317299999999999 0.018296285714285713
-0.091207 0.040036 0.046834 0.2727272727272727 -0.5354510375928245 -0.2232759849640611 0.054901818181818184 0.043744
0.024365 0.040036 0.046834 -0.3333333333333333 -0.4633204711736899 -0.3186786115348906 0.0349675 0.043435
-0.004528 0.040036 -0.0018 0.2857142857142857 -0.47006648737650963 0.2608736898746621 8.00000000000007E-06 0.022106285714285714
0.024365 -0.003107 0.096514 -0.25 0.75 0 0.096514 0.07160875
-0.062314 0.040036 -0.0018 -0.3333333333333333 -0.5232504021343112 0.13959606919107787 0.008885666666666667 0.019118
-0.004528 0.046652 -0.058981 0.3333333333333333 -0.27919213838215573 -0.3798341376019557 -0.037811333333333336 0.011440999999999996
0.024365 -0.003107 0.131029 -0.4 0.22200771729578606 -0.09120716692093438 0.13102900000000003 0.07737460000000002
-0.091207 -0.003107 0.131029 0.4 -0.15598456540842795 -0.18241433384186875 0.13102900000000003 0.07737460000000002
-0.091207 -0.003107 0.096514 0.25 0.75 0 0.096514 0.07160875
-0.033421 0.040036 -0.0018 0 -0.4905777992978201 0.5931236483857004 0.019332600000000002 0.023301600000000006
-0.062314 0.046652 -0.058981 -0.5 -0.20939410378661683 -0.2848756032014668 -0.02865725 0.020243749999999998
-0.004528 0.037968 -0.002116 0.25 -0.5320104566955086 0.17165335407919183 -0.0004549999999999999 0.017925999999999997
-0.062314 0.037968 -0.002116 -0.16666666666666666 -0.5445907065979836 0.25403163857720573 0.019360666666666665 0.017925999999999997
-0.033421 0.037968 -0.002116 0 -0.3603571026163168 0.7036638107747004 0.024536749999999996 0.027947
-0.378476 -0.041147 0.006044 0 0 0 -8.653333333333334 3.384266666666666
0.308678 -0.003494 0.006044 0 0 0 -4.625929269271485E-18 -0.047140333333333326
0.308678 -0.041147 0.006044 0 0 0 -0.37333333333333335 0.19285966666666665
-0.378476 -0.003494 0.006044 0 0 0 0 3.1442666666666668
0.319137 -0.041147 0.016503 0 0 0 -0.3085714285714285 0.18326314285714285
-0.388935 -0.003494 0.016503 0 0 0 6.769999999999998 3.3718833333333347
0.319137 -0.003494 0.016503 0 0 0 0 0.19023683333333333
-0.388935 -0.041147 0.016503 0 0 0 -7.428571428571426 1.5593785714285708
0.319137 -0.041147 0.50023 0 0 0 -0.288 8.896431999999997
0.300311 -0.041147 0.02487 0 0 0 -0.08307692307692305 0.3983700000000001
-0.388935 -0.003494 0.50023 0 0 0 5.802857142857141 5.923694285714285
0.319137 -0.003494 0.50023 0 0 0 0 8.896432
-0.370109 -0.041147 0.02487 0 0 0 -9.830953333333337 0.33542333333333335
-0.388935 -0.041147 0.50023 0 0 0 -9.465714285714283 7.686847142857144
0.308678 -0.003494 0.510689 0 0 0 0.12 4.716
0.300311 -0.041147 0.489771 0 0 0 0.036 4.485996
-0.370109 -0.035394 0.02487 0 0 0 0 0.45375000000000015
0.300311 -0.035394 0.02487 0 0 0 0.05545454545454546 0.4509090909090909
0.295605 -0.035394 0.0301 0 0 0 0.03124406666666663 0.3596132000000001
-0.378476 -0.041147 0.510689 0 0 0 2.956 1.1743120000000002
-0.378476 -0.003494 0.510689 0 0 0 10.005 4.172695
0.308678 -0.041147 0.510689 0 0 0 -0.22999999999999998 6.746249999999999
0.252735 -0.041147 0.489771 0 0 0 -0.6837115384615384 3.889224615384616
0.300311 -0.035394 0.489771 0 0 0 -0.0446153846153846 6.591538461538462
-0.370109 -0.041147 0.489771 0 0 0 -8.939645000000002 6.8056225
0.300834 -0.035394 0.02487 0 0 0 -0.314 0.45999999999999996
0.300834 -0.041147 0.02487 0 0 0 -0.1650716 0.30188099999999995
-0.36488 -0.035394 0.0301 0 0 0 1.437868571428571 0.4491475714285716
0.252735 -0.035394 0.489771 0 0 0 0.3174375 3.85
0.295605 -0.035394 0.484542 0 0 0 -0.03688983333333332 7.802413333333337
0.300834 -0.035394 0.489771 0 0 0 0.24333333333333337 7.329999999999999
0.261299 -0.034348 0.0301 0 0.3333333333333333 0 0.3686666666666667 0.5466666666666666
-0.370109 -0.035394 0.489771 0 0 0 1.8828571428571428 6.781428571428571
-0.36488 -0.035394 0.484542 0 0 0 -6.322493333333334 7.302720000000004
0.300834 -0.041147 0.489771 0 0 0 -0.22853579999999996 7.044996000000001
0.252735 -0.035394 0.484542 0 0 0 -0.76185 5.225264000000001
0.295605 -0.034348 0.484542 0 0.2 0 -0.033999999999999996 5.726000000000001
0.295605 -0.034348 0.0301 0 0.2 0 0.32600000000000007 0.512
-0.313425 -0.034348 0.0301 0 0.42857142857142855 0 1.7280142857142855 0.5342857142857143
-0.36488 -0.034348 0.0301 0 0.25 0 -0.29499999999999993 0.4925
0.261299 -0.034348 0.484542 0 0.42857142857142855 0 -1.1059999999999999 4.258571428571429
-0.313425 -0.034348 0.484542 0 0.3333333333333333 0 -12.0961 3.4433333333333334
-0.36488 -0.034348 0.484542 0 0.2 0 -8.084000000000001 5.726000000000001
0.295605 -0.034348 0.484542 0 -1 0 0 0
0.261299 -0.034348 0.0301 0 -1 0 0 0
0.295605 -0.034348 0.0301 0 -1 0 0 0
0.261299 -0.034348 0.484542 0 -1 0 0 0
-0.313425 -0.034348 0.484542 0 -1 0 0 0
-0.36488 -0.034348 0.0301 0 -1 0 0 0
-0.313425 -0.034348 0.0301 0 -1 0 0 0
-0.36488 -0.034348 0.484542 0 -1 0 0 0
0.261299 -0.034348 0.484542 0 -1 0 -0.001331 1.00631
-0.313425 -0.034348 0.0301 0 -1 0 -1.00043 0.018039
0.261299 -0.034348 0.0301 0 -1 0 -0.001331 0.018039
-0.313425 -0.034348 0.484542 0 -1 0 -1.00043 1.00631
0.303529 -0.041147 0.015272 0.25 0.5 0.25 -0.06442824999999999 -0.012937500000000001
0.284703 -0.041147 0.011611 -0.2 0.4 -0.4 -0.1069146 -0.0200438
0.284703 -0.041147 0.015272 -0.4 0.2 0.4 -0.104718 -0.029863200000000003
0.303529 -0.041147 0.011611 0.5 0.25 -0.25 -0.067174 -0.027957500000000003
0.284703 -0.042192 0.011611 -0.5 -0.25 -0.25 -0.06246749999999999 -0.02874125
0.303529 -0.042192 0.015272 0.4 -0.2 0.4 -0.11224840000000001 -0.0306992
0.303529 -0.042192 0.011611 0.2 -0.4 -0.4 -0.11444499999999998 -0.020670800000000003
0.284703 -0.042192 0.015272 -0.25 -0.5 0.25 -0.05972174999999999 -0.013460000000000001
0.284703 -0.041147 0.015272 0.4 -0.2 -0.4 -0.104718 -0.029863200000000003
0.284703 -0.041147 0.011611 0.2 -0.4 0.4 -0.1069146 -0.0200438
0.303529 -0.041147 0.015272 -0.25 -0.5 -0.25 -0.06442824999999999 -0.012937500000000001
0.303529 -0.041147 0.011611 -0.5 -0.25 0.25 -0.067174 -0.027957500000000003
0.284703 -0.042192 0.011611 0.5 0.25 0.25 -0.06246749999999999 -0.02874125
0.303529 -0.042192 0.015272 -0.4 0.2 -0.4 -0.11224840000000001 -0.0306992
0.303529 -0.042192 0.011611 -0.2 0.4 0.4 -0.11444499999999998 -0.020670800000000003
0.284703 -0.042192 0.015272 0.25 0.5 -0.25 -0.05972174999999999 -0.013460000000000001
0.279474 -0.041147 0.015272 0.25 0.5 0.25 -0.058414499999999994 -0.012937500000000001
0.260647 -0.041147 0.011611 -0.2 0.4 -0.4 -0.09729220000000001 -0.0200438
0.260647 -0.041147 0.015272 -0.4 0.2 0.4 -0.0950956 -0.029863200000000003
0.279474 -0.041147 0.011611 0.5 0.25 -0.25 -0.06116024999999999 -0.027957500000000003
0.260647 -0.042192 0.011611 -0.5 -0.25 -0.25 -0.056453500000000004 -0.02874125
0.279474 -0.042192 0.015272 0.4 -0.2 0.4 -0.10262640000000003 -0.0306992
0.279474 -0.042192 0.011611 0.2 -0.4 -0.4 -0.10482299999999999 -0.020670800000000003
0.260647 -0.042192 0.015272 -0.25 -0.5 0.25 -0.05370775 -0.013460000000000001
0.260647 -0.041147 0.015272 0.4 -0.2 -0.4 -0.0950956 -0.029863200000000003
0.260647 -0.041147 0.011611 0.2 -0.4 0.4 -0.09729220000000001 -0.0200438
0.279474 -0.041147 0.015272 -0.25 -0.5 -0.25 -0.058414499999999994 -0.012937500000000001
0.279474 -0.041147 0.011611 -0.5 -0.25 0.25 -0.06116024999999999 -0.027957500000000003
0.260647 -0.042192 0.011611 0.5 0.25 0.25 -0.056453500000000004 -0.02874125
0.279474 -0.042192 0.015272 -0.4 0.2 -0.4 -0.10262640000000003 -0.0306992
0.279474 -0.042192 0.011611 -0.2 0.4 0.4 -0.10482299999999999 -0.020670800000000003
0.260647 -0.042192 0.015272 0.25 0.5 -0.25 -0.05370775 -0.013460000000000001
3 0 1 2
3 1 0 3
3 2 1 0
3 3 0 1
3 1 4 2
3 2 4 1
3 2 5 0
3 0 5 2
3 0 6 3
3 3 6 0
3 1 3 7
3 7 3 1
3 4 1 8
3 8 1 4
3 5 2 4
3 4 2 5
3 6 0 5
3 5 0 6
3 9 3 6
3 6 3 9
3 7 3 10
3 10 3 7
3 7 8 1
3 1 8 7
3 5 8 4
3 4 8 5
3 11 5 6
3 6 5 11
3 3 9 10
3 10 9 3
3 12 6 9
3 9 6 12
3 7 10 13
3 13 10 7
3 8 7 14
3 14 7 8
3 8 5 15
3 15 5 8
3 5 11 15
3 15 11 5
3 11 6 12
3 12 6 11
3 9 16 10
3 10 16 9
3 12 9 17
3 17 9 12
3 13 10 16
3 16 10 13
3 13 14 7
3 7 14 13
3 8 18 14
3 14 18 8
3 8 15 18
3 18 15 8
3 11 18 15
3 15 18 11
3 19 11 15
3 15 11 19
3 18 11 12
3 12 11 18
3 11 20 12
3 12 20 11
3 16 9 21
3 21 9 16
3 17 9 21
3 21 9 17
3 22 12 17
3 17 12 22
3 12 23 17
3 17 23 12
3 13 16 24
3 24 16 13
3 14 13 25
3 25 13 14
3 14 18 22
3 22 18 14
3 26 15 18
3 18 15 26
3 11 19 20
3 20 19 11
3 26 19 15
3 15 19 26
3 18 12 22
3 22 12 18
3 12 20 23
3 23 20 12
3 21 27 16
3 16 27 21
3 17 21 28
3 28 21 17
3 22 17 29
3 29 17 22
3 17 23 30
3 30 23 17
3 24 16 27
3 27 16 24
3 31 13 24
3 24 13 31
3 13 31 25
3 25 31 13
3 14 22 25
3 25 22 14
3 32 18 22
3 22 18 32
3 26 18 32
3 32 18 26
3 19 33 20
3 20 33 19
3 19 26 34
3 34 26 19
3 33 23 20
3 20 23 33
3 27 21 35
3 35 21 27
3 28 21 35
3 35 21 28
3 29 17 28
3 28 17 29
3 17 30 28
3 28 30 17
3 25 22 29
3 29 22 25
3 36 22 29
3 29 22 36
3 37 30 23
3 23 30 37
3 24 27 38
3 38 27 24
3 24 39 31
3 31 39 24
3 25 29 31
3 31 29 25
3 32 22 36
3 36 22 32
3 40 26 32
3 32 26 40
3 33 19 41
3 41 19 33
3 42 34 26
3 26 34 42
3 43 19 34
3 34 19 43
3 23 33 37
3 37 33 23
3 35 44 27
3 27 44 35
3 28 35 45
3 45 35 28
3 29 28 46
3 46 28 29
3 28 30 47
3 47 30 28
3 36 29 48
3 48 29 36
3 30 37 49
3 49 37 30
3 38 27 44
3 44 27 38
3 39 24 38
3 38 24 39
3 31 46 39
3 39 46 31
3 31 29 46
3 46 29 31
3 36 40 32
3 32 40 36
3 26 40 42
3 42 40 26
3 19 43 41
3 41 43 19
3 41 42 33
3 33 42 41
3 34 42 43
3 43 42 34
3 33 40 37
3 37 40 33
3 44 35 50
3 50 35 44
3 45 35 50
3 50 35 45
3 46 28 45
3 45 28 46
3 28 47 45
3 45 47 28
3 48 29 46
3 46 29 48
3 49 47 30
3 30 47 49
3 48 51 36
3 36 51 48
3 37 51 49
3 49 51 37
3 38 44 52
3 52 44 38
3 38 53 39
3 39 53 38
3 39 46 54
3 54 46 39
3 40 36 51
3 51 36 40
3 33 42 40
3 40 42 33
3 42 41 43
3 43 41 42
3 37 40 51
3 51 40 37
3 50 55 44
3 44 55 50
3 45 50 56
3 56 50 45
3 46 45 54
3 54 45 46
3 45 47 57
3 57 47 45
3 48 46 58
3 58 46 48
3 47 49 59
3 59 49 47
3 51 48 60
3 60 48 51
3 49 51 60
3 60 51 49
3 52 44 55
3 55 44 52
3 53 38 52
3 52 38 53
3 39 54 53
3 53 54 39
3 58 46 54
3 54 46 58
3 55 50 61
3 61 50 55
3 56 50 61
3 61 50 56
3 54 45 56
3 56 45 54
3 45 57 56
3 56 57 45
3 59 57 47
3 47 57 59
3 62 48 58
3 58 48 62
3 49 60 59
3 59 60 49
3 48 62 60
3 60 62 48
3 52 55 63
3 63 55 52
3 52 64 53
3 53 64 52
3 53 54 65
3 65 54 53
3 58 54 66
3 66 54 58
3 61 67 55
3 55 67 61
3 56 61 68
3 68 61 56
3 54 56 65
3 65 56 54
3 56 57 69
3 69 57 56
3 57 59 70
3 70 59 57
3 58 71 62
3 62 71 58
3 59 60 62
3 62 60 59
3 63 55 67
3 67 55 63
3 64 52 63
3 63 52 64
3 53 72 64
3 64 72 53
3 66 54 65
3 65 54 66
3 53 65 72
3 72 65 53
3 71 58 66
3 66 58 71
3 67 61 73
3 73 61 67
3 68 61 74
3 74 61 68
3 65 56 68
3 68 56 65
3 56 69 68
3 68 69 56
3 70 69 57
3 57 69 70
3 59 62 70
3 70 62 59
3 70 62 71
3 71 62 70
3 63 67 75
3 75 67 63
3 63 76 64
3 64 76 63
3 64 72 77
3 77 72 64
3 66 65 72
3 72 65 66
3 65 68 72
3 72 68 65
3 66 78 71
3 71 78 66
3 74 61 73
3 73 61 74
3 73 79 67
3 67 79 73
3 72 68 74
3 74 68 72
3 68 69 74
3 74 69 68
3 69 70 80
3 80 70 69
3 70 71 80
3 80 71 70
3 75 67 79
3 79 67 75
3 76 63 75
3 75 63 76
3 64 77 76
3 76 77 64
3 72 74 77
3 77 74 72
3 81 72 77
3 77 72 81
3 66 72 81
3 81 72 66
3 78 66 81
3 81 66 78
3 80 71 78
3 78 71 80
3 74 73 82
3 82 73 74
3 79 73 83
3 83 73 79
3 74 69 84
3 84 69 74
3 80 84 69
3 69 84 80
3 75 79 85
3 85 79 75
3 75 86 76
3 76 86 75
3 76 77 87
3 87 77 76
3 77 74 82
3 82 74 77
3 81 77 88
3 88 77 81
3 81 89 78
3 78 89 81
3 80 78 90
3 90 78 80
3 82 73 83
3 83 73 82
3 74 84 82
3 82 84 74
3 91 79 83
3 83 79 91
3 84 80 90
3 90 80 84
3 85 79 92
3 92 79 85
3 86 75 85
3 85 75 86
3 76 87 86
3 86 87 76
3 77 82 87
3 87 82 77
3 88 77 87
3 87 77 88
3 89 81 88
3 88 81 89
3 90 78 89
3 89 78 90
3 82 83 93
3 93 83 82
3 82 84 94
3 94 84 82
3 79 91 92
3 92 91 79
3 93 83 91
3 91 83 93
3 95 84 90
3 90 84 95
3 85 92 96
3 96 92 85
3 96 86 85
3 85 86 96
3 86 87 97
3 97 87 86
3 87 82 93
3 93 82 87
3 88 87 98
3 98 87 88
3 88 99 89
3 89 99 88
3 90 89 95
3 95 89 90
3 93 95 82
3 82 95 93
3 82 94 93
3 93 94 82
3 82 100 93
3 93 100 82
3 84 95 94
3 94 95 84
3 101 92 91
3 91 92 101
3 93 91 102
3 102 91 93
3 96 92 103
3 103 92 96
3 86 96 104
3 104 96 86
3 87 102 97
3 97 102 87
3 98 87 97
3 97 87 98
3 86 97 104
3 104 97 86
3 87 93 102
3 102 93 87
3 99 88 98
3 98 88 99
3 95 89 99
3 99 89 95
3 93 100 95
3 95 100 93
3 100 82 95
3 95 82 100
3 93 94 105
3 105 94 93
3 106 93 100
3 100 93 106
3 102 100 93
3 93 100 102
3 100 94 95
3 95 94 100
3 92 101 103
3 103 101 92
3 107 91 101
3 101 91 107
3 102 91 107
3 107 91 102
3 93 106 102
3 102 106 93
3 93 105 102
3 102 105 93
3 96 103 108
3 108 103 96
3 108 104 96
3 96 104 108
3 97 102 107
3 107 102 97
3 98 97 109
3 109 97 98
3 104 97 110
3 110 97 104
3 98 111 99
3 99 111 98
3 95 99 100
3 100 99 95
3 94 100 105
3 105 100 94
3 102 106 100
3 100 106 102
3 105 100 106
3 106 100 105
3 100 99 106
3 106 99 100
3 112 103 101
3 101 103 112
3 107 101 113
3 113 101 107
3 102 105 107
3 107 105 102
3 114 106 102
3 102 106 114
3 108 103 115
3 115 103 108
3 104 108 116
3 116 108 104
3 97 107 110
3 110 107 97
3 109 97 110
3 110 97 109
3 111 98 109
3 109 98 111
3 104 110 116
3 116 110 104
3 106 99 111
3 111 99 106
3 105 106 117
3 117 106 105
3 106 118 105
3 105 118 106
3 103 112 115
3 115 112 103
3 113 101 112
3 112 101 113
3 110 107 113
3 113 107 110
3 107 118 113
3 113 118 107
3 107 105 118
3 118 105 107
3 106 114 117
3 117 114 106
3 115 116 108
3 108 116 115
3 109 110 119
3 119 110 109
3 119 111 109
3 109 111 119
3 116 110 113
3 113 110 116
3 106 111 120
3 120 111 106
3 118 106 120
3 120 106 118
3 116 115 112
3 112 115 116
3 113 112 116
3 116 112 113
3 119 110 113
3 113 110 119
3 113 118 121
3 121 118 113
3 111 119 122
3 122 119 111
3 120 111 122
3 122 111 120
3 120 121 118
3 118 121 120
3 113 121 119
3 119 121 113
3 121 122 119
3 119 122 121
3 120 122 123
3 123 122 120
3 121 120 123
3 123 120 121
3 122 121 123
3 123 121 122
3 124 125 126
3 126 125 124
3 127 124 126
3 126 124 127
3 128 129 130
3 129 128 131
3 132 130 129
3 133 128 130
3 128 134 131
3 131 135 129
3 130 132 133
3 129 136 132
3 128 133 137
3 134 128 138
3 135 131 134
3 136 129 135
3 133 132 139
3 132 136 140
3 133 138 137
3 141 137 133
3 138 128 137
3 138 142 134
3 135 134 142
3 135 143 136
3 132 138 139
3 138 133 139
3 144 133 139
3 143 140 136
3 140 138 132
3 137 145 138
3 137 141 146
3 133 144 141
3 142 138 147
3 142 148 135
3 143 135 148
3 145 139 138
3 139 145 144
3 140 143 149
3 147 138 140
3 145 137 146
3 144 146 141
3 147 150 142
3 148 142 150
3 150 143 148
3 146 144 145
3 143 150 149
3 151 140 149
3 140 151 147
3 150 147 151
3 149 150 151
3 152 153 154
3 155 154 153
3 153 152 156
3 152 154 157
3 155 158 154
3 153 159 155
3 157 156 152
3 156 160 153
3 161 157 154
3 162 154 158
3 158 155 159
3 159 153 160
3 163 156 157
3 164 160 156
3 161 162 157
3 157 161 165
3 161 154 162
3 158 166 162
3 166 158 159
3 160 167 159
3 163 162 156
3 163 157 162
3 163 157 168
3 160 164 167
3 156 162 164
3 162 169 161
3 170 165 161
3 165 168 157
3 171 162 166
3 159 172 166
3 172 159 167
3 162 163 169
3 168 169 163
3 173 167 164
3 164 162 171
3 170 161 169
3 165 170 168
3 166 174 171
3 174 166 172
3 172 167 174
3 169 168 170
3 173 174 167
3 173 164 175
3 171 175 164
3 175 171 174
3 175 174 173
3 176 177 178
3 177 176 179
3 178 177 176
3 179 176 177
3 177 180 178
3 178 180 177
3 180 176 178
3 178 176 180
3 176 181 179
3 179 181 176
3 181 177 179
3 179 177 181
3 180 177 182
3 182 177 180
3 176 180 183
3 183 180 176
3 181 176 183
3 183 176 181
3 177 181 182
3 182 181 177
3 182 184 180
3 180 184 182
3 183 180 185
3 185 180 183
3 183 186 181
3 181 186 183
3 182 181 186
3 186 181 182
3 184 182 187
3 187 182 184
3 185 180 184
3 184 180 185
3 188 183 185
3 185 183 188
3 186 183 189
3 189 183 186
3 182 186 187
3 187 186 182
3 190 184 187
3 187 184 190
3 185 184 191
3 191 184 185
3 183 188 189
3 189 188 183
3 185 192 188
3 188 192 185
3 193 185 188
3 188 185 193
3 185 194 188
3 188 194 185
3 195 186 189
3 189 186 195
3 187 186 196
3 196 186 187
3 184 190 197
3 197 190 184
3 187 196 190
3 190 196 187
3 191 184 198
3 198 184 191
3 199 185 191
3 191 185 199
3 189 188 200
3 200 188 189
3 192 185 193
3 193 185 192
3 193 188 192
3 192 188 193
3 185 199 193
3 193 199 185
3 201 185 193
3 193 185 201
3 194 185 202
3 202 185 194
3 188 194 203
3 203 194 188
3 186 195 196
3 196 195 186
3 189 197 195
3 195 197 189
3 190 195 197
3 197 195 190
3 189 184 197
3 197 184 189
3 195 190 196
3 196 190 195
3 198 184 200
3 200 184 198
3 198 199 191
3 191 199 198
3 191 204 198
3 198 204 191
3 205 191 198
3 198 191 205
3 191 206 199
3 191 199 204
3 199 206 191
3 204 199 191
3 203 200 188
3 188 200 203
3 189 200 184
3 184 200 189
3 193 194 192
3 192 194 193
3 192 203 193
3 193 203 192
3 194 193 199
3 199 193 194
3 185 201 202
3 202 201 185
3 193 206 201
3 201 206 193
3 202 205 194
3 194 205 202
3 203 192 194
3 194 192 203
3 194 193 203
3 203 193 194
3 194 207 203
3 203 207 194
3 208 198 200
3 200 198 208
3 198 208 200
3 200 208 198
3 209 198 200
3 200 198 209
3 199 198 204
3 204 198 199
3 198 208 204
3 204 208 198
3 198 204 208
3 208 204 198
3 191 205 210
3 210 205 191
3 205 198 211
3 211 198 205
3 206 191 210
3 210 191 206
3 206 204 199
3 199 204 206
3 208 199 204
3 204 199 208
3 200 203 209
3 209 203 200
3 206 193 194
3 194 193 206
3 192 203 208
3 208 203 192
3 203 192 208
3 208 192 203
3 194 199 205
3 205 199 194
3 201 210 202
3 202 210 201
3 210 201 206
3 206 201 210
3 205 202 210
3 210 202 205
3 206 194 205
3 205 194 206
3 212 194 205
3 205 194 212
3 207 194 213
3 213 194 207
3 203 207 214
3 214 207 203
3 211 198 209
3 209 198 211
3 206 208 204
3 204 208 206
3 205 199 211
3 211 199 205
3 211 208 205
3 205 208 211
3 211 212 205
3 205 212 211
3 208 209 199
3 199 209 208
3 208 203 209
3 209 203 208
3 203 208 209
3 209 208 203
3 215 209 203
3 203 209 215
3 206 205 208
3 208 205 206
3 194 212 213
3 213 212 194
3 213 207 212
3 207 214 216
3 203 214 215
3 215 214 203
3 211 199 209
3 209 199 211
3 209 208 211
3 211 208 209
3 217 211 209
3 209 211 217
3 212 211 216
3 216 211 212
3 209 215 218
3 218 215 209
3 216 212 207
3 217 216 214
3 214 215 217
3 216 211 217
3 217 211 216
3 217 209 218
3 218 209 217
3 218 217 215
3 219 220 221
3 220 219 222
3 223 224 225
3 224 223 226
3 227 228 229
3 228 227 230
3 231 232 233
3 232 231 234
3 235 233 232
3 233 236 231
3 236 234 231
3 237 232 234
3 233 235 238
3 232 237 235
3 236 233 238
3 234 236 237
3 237 238 235
3 238 237 236
3 239 240 241
3 242 241 240
3 240 239 243
3 241 244 239
3 241 242 244
3 242 240 245
3 246 243 239
3 243 245 240
3 246 239 244
3 245 244 242
3 243 246 245
3 244 245 246
3 247 248 249
3 248 247 250
3 251 249 248
3 249 252 247
3 252 250 247
3 253 248 250
3 249 251 254
3 248 253 251
3 252 249 254
3 250 252 253
3 253 254 251
3 254 253 252
3 255 256 257
3 258 257 256
3 256 255 259
3 257 260 255
3 257 258 260
3 258 256 261
3 262 259 255
3 259 261 256
3 262 255 260
3 261 260 258
3 259 262 261
3 260 261 262
